<?xml version="1.0" encoding="UTF-8" standalone="no"?>
<svg
   xmlns:dc="http://purl.org/dc/elements/1.1/"
   xmlns:cc="http://creativecommons.org/ns#"
   xmlns:rdf="http://www.w3.org/1999/02/22-rdf-syntax-ns#"
   xmlns:svg="http://www.w3.org/2000/svg"
   xmlns="http://www.w3.org/2000/svg"
   xmlns:sodipodi="http://sodipodi.sourceforge.net/DTD/sodipodi-0.dtd"
   xmlns:inkscape="http://www.inkscape.org/namespaces/inkscape"
   version="1.1"
   width="100%"
   height="100%"
   viewBox="0 0 16 16"
   id="svg2"
   inkscape:version="0.48.3.1 r9886"
   sodipodi:docname="arrowthin.svg">
  <metadata
     id="metadata20">
    <rdf:RDF>
      <cc:Work
         rdf:about="">
        <dc:format>image/svg+xml</dc:format>
        <dc:type
           rdf:resource="http://purl.org/dc/dcmitype/StillImage" />
      </cc:Work>
    </rdf:RDF>
  </metadata>
  <sodipodi:namedview
     pagecolor="#ffffff"
     bordercolor="#666666"
     borderopacity="1"
     objecttolerance="10"
     gridtolerance="10"
     guidetolerance="10"
     inkscape:pageopacity="0"
     inkscape:pageshadow="2"
     inkscape:window-width="1221"
     inkscape:window-height="776"
     id="namedview18"
     showgrid="false"
     inkscape:zoom="20.85965"
     inkscape:cx="6.1016949"
     inkscape:cy="5.2881356"
     inkscape:window-x="59"
     inkscape:window-y="24"
     inkscape:window-maximized="1"
     inkscape:current-layer="svg2" />
  <defs
     id="svgEditorDefs">
    <path
       id="svgEditorClosePathDefs"
       stroke="black"
       style="vector-effect: non-scaling-stroke; stroke-width: 1px;"
       fill="#F0E68C" />
    <line
       id="svgEditorLineDefs"
       style="fill: none; vector-effect: non-scaling-stroke; stroke-width: 1px;"
       stroke="black" />
    <g
       id="svgEditorGroupDefs"
       fill="khaki"
       stroke="black"
       style="vector-effect: non-scaling-stroke; stroke-width: 1px;" />
  </defs>
  <rect
     id="svgEditorBackground"
     x="0"
     y="0"
     width="16"
     height="16"
     style="fill: none; stroke: none;" />
  <line
     x1="0.39839801"
     y1="4.1514735"
     x2="8.3798027"
     y2="12.118846"
     style="fill:none;stroke:#b2b2b2;stroke-width:1.06360328px"
     id="e7-line" />
  <g
     transform="matrix(0.000846024, 0, 0, 0, 6.74112, 4.30457)"
     style="vector-effect: non-scaling-stroke; stroke-width: 1px;"
     stroke="black"
     id="e9-shape"
     fill="khaki">
    <path
       d="M80 64c0 8.837-7.163 16-16 16s-16-7.163-16-16c0-8.837 7.163-16 16-16s16 7.163 16 16z"
       id="path12" />
    <path
       d="M80 16c0 8.837-7.163 16-16 16s-16-7.163-16-16c0-8.836 7.163-16 16-16s16 7.163 16 16z"
       id="path14" />
    <path
       d="M80 112c0 8.837-7.163 16-16 16s-16-7.163-16-16c0-8.837 7.163-16 16-16s16 7.163 16 16z"
       id="path16" />
  </g>
  <line
     x1="7.6565723"
     y1="12.09288"
     x2="15.623944"
     y2="4.1114755"
     style="fill:none;stroke:#b2b2b2;stroke-width:1.06360328px"
     id="e7-line-7" />
</svg>
